<?xml version="1.0" encoding="UTF-8"?><svg id="Capa_2" xmlns="http://www.w3.org/2000/svg" viewBox="0 0 50 50"><defs><style>.cls-1{fill:#fff;}</style></defs><g><path class="cls-1" d="M27.49,24.09v-.02s6.56,.25,6.56,.25c.14,0,.27,0,.4,0,1.38,0,2.72-.26,3.96-.75,1.98-.81,3.69-2.22,4.87-4.11l.71-1.13c-.32-.64-1.41-.92-2.76-.99l-23.56-.88-2.46,3.92c-.41,.66-.45,1.47-.08,2.16,.36,.69,1.05,1.12,1.83,1.15l10.53,.4Z"/><path class="cls-1" d="M17.52,15.9l-.02,.03,.49,.02,23.26,.87c1.57,.08,2.58,.42,3.06,1.02,0,0,0,0,0,0l.33-.53,.39-.63h0s.32-.52,.32-.52l1.67-2.65c.59-.93,.63-2.06,.12-3.03-.51-.97-1.48-1.57-2.57-1.61L2.5,7.29l1.53,2.91c1.08,2.03,2.78,3.62,4.79,4.57,1.25,.57,2.62,.91,4.03,.96l4.67,.18Z"/><path class="cls-1" d="M27.78,24.64l-10.84-.41c-.38-.01-.74-.1-1.05-.25l11.23,21.26,2.91-4.63c2.08-3.32,2.24-7.49,.41-10.95l-2.65-5.02Z"/></g><circle class="cls-1" cx="38.26" cy="37.14" r="4.09"/></svg>